:SAMPLES-PER-SECOND 30
:FULLY-SPECIFIED
:DEGREES
585
root  0.00454705 38.2353 23.3956 -8.99197 18.6326 3.20184
RightUpLeg  6.51916 -17.9387 -7.36739
RightLeg  47.5913 2.80186 2.93369
RightFoot  2.29782 -1.67643 13.6338
RightToes  -5.82094e-011 -1.98785e-016 -5.10186e-018
Spine  4.43211 2.86794 -8.34173
Spine1  11.5943 0.682871 3.07118
HEad  27.405 -11.3618 3.76372
LeftShoulder1  1.33795 -0.942574 -23.8379
LeftArm  -27.9649 32.5285 -44.5253
LeftForeArm  84.2267 -64.1169 -15.1625
LeftHand  0.170484 1.38124 -5.28566
RightShoulder  3.85759 7.06783 30.5834
RightArm  13.1278 -16.4301 31.9656
RightForeArm  16.4026 16.9152 6.00466
RightHand  -1.55265 7.92146 -13.8192
LeftUpLeg  -10.1161 12.3621 -9.34579
LeftLeg  16.594 -8.1139 -2.73617
LeftFoot  5.25446 -0.900124 5.95298
LeftToes  -8.4584e-011 5.90861e-011 8.40072e-012
586
root  0.0582908 38.2849 22.1094 -9.02929 17.7575 2.16083
RightUpLeg  9.54894 -17.0744 -5.41341
RightLeg  39.7546 3.44134 2.80986
RightFoot  -5.22141 -0.337917 6.15732
RightToes  -5.82094e-011 -1.98785e-016 -5.10186e-018
Spine  5.10038 2.48723 -4.57257
Spine1  10.2269 1.36753 1.59429
HEad  25.9432 -11.4254 3.22086
LeftShoulder1  1.35801 -0.962102 -24.1705
LeftArm  -30.3005 31.5294 -45.3994
LeftForeArm  84.875 -63.9624 -15.0073
LeftHand  0.144179 2.59445 -6.76009
RightShoulder  4.06864 7.63938 30.6022
RightArm  13.7421 -14.3629 30.9877
RightForeArm  14.7348 17.1743 5.87967
RightHand  -1.64896 7.77767 -14.7977
LeftUpLeg  -10.2393 8.88009 -8.55599
LeftLeg  11.9777 -4.07508 -2.46146
LeftFoot  9.18257 -1.12667 5.90722
LeftToes  -8.4584e-011 5.90861e-011 8.40072e-012
587
root  0.0517448 38.1916 20.6739 -8.90288 16.8694 0.859539
RightUpLeg  11.0598 -15.131 -2.51262
RightLeg  32.6471 2.20479 1.29258
RightFoot  -14.9742 0.0588642 4.91049
RightToes  -5.82094e-011 -1.98785e-016 -5.10186e-018
Spine  5.92881 2.13813 -0.80132
Spine1  8.79342 1.92263 0.265242
HEad  25.1408 -11.6205 3.26198
LeftShoulder1  1.47908 -1.39124 -23.9802
LeftArm  -31.7829 30.0372 -46.8
LeftForeArm  84.6775 -63.918 -14.9842
LeftHand  0.0915426 3.62352 -7.59206
RightShoulder  4.20364 8.06948 30.4064
RightArm  14.2612 -11.9109 30.2525
RightForeArm  13.863 17.2312 5.88015
RightHand  -1.6761 7.75316 -15.0603
LeftUpLeg  -11.2802 4.33512 -7.00589
LeftLeg  8.20429 0.475232 -2.76582
LeftFoot  13.0862 -1.24945 5.38169
LeftToes  -8.4584e-011 5.90861e-011 8.40072e-012
588
root  -0.0323809 38.0256 19.0992 -9.08302 16.483 -0.965503
RightUpLeg  10.3455 -12.9458 1.22519
RightLeg  28.3326 -1.45714 -1.07495
RightFoot  -21.0463 0.170853 3.65516
RightToes  -5.82094e-011 -1.98785e-016 -5.10186e-018
Spine  7.63644 1.64642 2.61672
Spine1  7.04341 1.93884 -0.266888
HEad  25.5902 -12.3909 3.55895
LeftShoulder1  1.65764 -1.98659 -23.9421
LeftArm  -32.6531 27.7192 -48.0259
LeftForeArm  85.2517 -63.9878 -15.0065
LeftHand  0.154641 2.89975 -8.21395
RightShoulder  4.27884 8.48036 29.7745
RightArm  14.9939 -9.4219 29.6924
RightForeArm  13.6239 17.2843 5.85964
RightHand  -1.74351 8.15647 -15.1921
LeftUpLeg  -12.7525 1.93073 -4.9821
LeftLeg  5.31991 1.48478 -3.16415
LeftFoot  16.8517 -0.706453 2.49179
LeftToes  -8.4584e-011 5.90861e-011 8.40072e-012
589
root  -0.114738 37.897 17.565 -9.96441 16.8065 -3.46806
RightUpLeg  9.27782 -11.6785 4.97562
RightLeg  25.3144 -5.66049 -3.15092
RightFoot  -23.1414 0.109304 2.55629
RightToes  -5.82094e-011 -1.98785e-016 -5.10186e-018
Spine  8.76988 1.04041 5.09937
Spine1  6.31814 1.18501 1.20727
HEad  28.1088 -13.6542 3.58811
LeftShoulder1  1.85514 -2.53048 -24.5467
LeftArm  -31.9418 24.7075 -48.8275
LeftForeArm  85.1263 -63.9053 -14.9505
LeftHand  0.12635 3.17873 -7.92022
RightShoulder  4.2771 8.71539 29.0524
RightArm  16.0326 -6.81365 28.7672
RightForeArm  14.2397 16.8682 6.1895
RightHand  -1.93647 9.20204 -15.6668
LeftUpLeg  -13.5195 2.06289 -2.22397
LeftLeg  2.82277 -1.98364 -3.78421
LeftFoot  18.0489 1.79399 -7.4528
LeftToes  -8.4584e-011 5.90861e-011 8.40072e-012
590
root  -0.226426 37.9023 16.1821 -10.9545 17.9829 -5.26823
RightUpLeg  8.20941 -11.9139 6.99258
RightLeg  23.5771 -7.74123 -3.90819
RightFoot  -22.7843 0.053158 2.07054
RightToes  -5.82094e-011 -1.98785e-016 -5.10186e-018
Spine  8.84661 0.76558 4.54376
Spine1  6.5367 -0.1481 4.85753
HEad  32.4512 -15.3779 4.12508
LeftShoulder1  2.11593 -3.43088 -24.301
LeftArm  -31.2607 22.1774 -50.6636
LeftForeArm  86.4046 -63.4118 -14.5184
LeftHand  0.167745 2.17553 -6.6149
RightShoulder  4.29932 8.67572 29.3581
RightArm  15.5523 -5.03694 27.0656
RightForeArm  15.3468 16.2058 6.67164
RightHand  -1.92253 9.15103 -15.6067
LeftUpLeg  -13.8708 4.13392 -0.371089
LeftLeg  2.06846 -7.94597 -4.33904
LeftFoot  16.0816 4.72376 -19.5336
LeftToes  -8.4584e-011 5.90861e-011 8.40072e-012
591
root  -0.339975 38.132 14.7575 -12.0376 19.4605 -6.16257
RightUpLeg  6.91742 -12.7614 7.42771
RightLeg  22.7159 -8.60964 -4.15281
RightFoot  -20.0569 0.0297253 2.17186
RightToes  -5.82094e-011 -1.98785e-016 -5.10186e-018
Spine  9.11304 0.622302 2.11384
Spine1  7.42169 -1.72649 9.14861
HEad  37.0942 -17.3845 4.53145
LeftShoulder1  2.41898 -4.3614 -24.5533
LeftArm  -29.1155 19.4892 -51.5992
LeftForeArm  85.6241 -62.5017 -13.9105
LeftHand  0.140684 2.14233 -5.55723
RightShoulder  4.25466 8.4567 29.6389
RightArm  12.2336 -4.24762 25.7343
RightForeArm  17.7791 14.9675 7.48197
RightHand  -2.04864 9.34468 -16.3826
LeftUpLeg  -14.5295 8.3156 -0.225634
LeftLeg  5.50089 -11.8801 -4.0785
LeftFoot  15.4891 5.38893 -22.6534
LeftToes  -8.4584e-011 5.90861e-011 8.40072e-012
592
root  -0.461574 38.3785 13.3504 -13.2339 21.0462 -5.66257
RightUpLeg  6.1032 -12.9119 6.38124
RightLeg  22.3639 -9.70159 -4.57114
RightFoot  -17.3607 0.00940079 2.43361
RightToes  -5.82094e-011 -1.98785e-016 -5.10186e-018
Spine  9.88308 0.7634 -2.30921
Spine1  9.10379 -3.42262 13.6637
HEad  40.7556 -19.133 4.72689
LeftShoulder1  2.63391 -4.96473 -24.9493
LeftArm  -26.2185 16.426 -52.2963
LeftForeArm  84.5059 -62.0274 -13.6396
LeftHand  0.148588 1.99847 -5.57739
RightShoulder  4.09059 7.90971 29.9183
RightArm  10.1963 -4.12445 24.8262
RightForeArm  16.1824 14.1804 8.14379
RightHand  -2.19351 8.84348 -18.1018
LeftUpLeg  -14.3386 8.88107 -0.534465
LeftLeg  10.9329 -13.623 -3.11543
LeftFoot  10.6932 3.0147 -15.5758
LeftToes  -8.4584e-011 5.90861e-011 8.40072e-012
593
root  -0.582447 38.6139 11.9692 -13.9509 22.0656 -4.25773
RightUpLeg  5.20116 -11.6105 4.82612
RightLeg  22.1182 -11.4696 -5.29141
RightFoot  -14.7984 -0.0112677 2.92001
RightToes  -5.82094e-011 -1.98785e-016 -5.10186e-018
Spine  11.4753 1.13277 -6.12322
Spine1  9.63031 -4.29611 16.1718
HEad  42.2093 -20.66 5.58102
LeftShoulder1  2.88111 -6.1062 -23.7535
LeftArm  -23.4283 15.1956 -53.689
LeftForeArm  83.6195 -63.0182 -14.3882
LeftHand  0.164822 1.59982 -5.40279
RightShoulder  3.86287 7.20859 30.1438
RightArm  11.1819 -6.37401 25.0555
RightForeArm  10.2975 15.6043 7.30703
RightHand  -2.2552 8.04193 -19.6284
LeftUpLeg  -13.5311 5.87068 0.266496
LeftLeg  16.9433 -8.89574 -2.622
LeftFoot  5.55663 1.40324 -9.85243
LeftToes  -8.4584e-011 5.90861e-011 8.40072e-012
594
root  -0.59099 38.7335 10.625 -14.4558 22.8016 -3.64818
RightUpLeg  4.02995 -10.5371 3.83435
RightLeg  21.7355 -12.8561 -5.78686
RightFoot  -12.5019 -0.0531058 3.22363
RightToes  -5.82094e-011 -1.98785e-016 -5.10186e-018
Spine  12.8459 0.905384 -7.59478
Spine1  9.66552 -5.09973 17.5541
HEad  42.3959 -20.9565 5.89151
LeftShoulder1  3.07614 -6.9823 -23.0726
LeftArm  -20.5084 14.7932 -53.9274
LeftForeArm  82.8395 -65.1533 -16.0885
LeftHand  0.219251 0.618134 -5.47775
RightShoulder  3.73563 6.98389 29.6907
RightArm  10.5755 -9.4294 25.831
RightForeArm  8.52083 15.83 7.18937
RightHand  -2.3761 8.2716 -20.3191
LeftUpLeg  -12.7281 3.27418 1.87064
LeftLeg  23.0909 -3.32209 -1.2411
LeftFoot  3.66624 1.31184 -10.1418
LeftToes  -8.4584e-011 5.90861e-011 8.40072e-012
595
root  -0.494231 38.7697 9.30269 -14.5245 23.4386 -3.82201
RightUpLeg  2.24573 -9.53135 3.51812
RightLeg  21.2374 -14.2854 -6.24579
RightFoot  -10.2427 -0.103318 3.67518
RightToes  -5.82094e-011 -1.98785e-016 -5.10186e-018
Spine  13.3908 0.146436 -7.19347
Spine1  9.52164 -5.71399 17.7188
HEad  41.6255 -20.8977 5.42965
LeftShoulder1  3.24666 -7.58326 -23.0201
LeftArm  -17.485 14.1904 -53.3633
LeftForeArm  82.9805 -67.1943 -17.9884
LeftHand  0.307915 -1.23162 -5.30438
RightShoulder  3.49089 6.53412 28.8406
RightArm  9.86591 -12.926 26.9754
RightForeArm  9.20875 15.4887 7.41993
RightHand  -2.37596 8.39203 -20.1429
LeftUpLeg  -12.384 1.80198 4.23288
LeftLeg  30.0407 -1.60116 -0.680705
LeftFoot  1.25518 1.12078 -10.1314
LeftToes  -8.4584e-011 5.90861e-011 8.40072e-012
596
root  -0.350913 38.7975 8.01713 -13.8933 22.2571 -3.81783
RightUpLeg  -0.123252 -8.37882 3.14602
RightLeg  20.5205 -14.0985 -5.96361
RightFoot  -7.71947 -0.168971 3.64332
RightToes  -5.82094e-011 -1.98785e-016 -5.10186e-018
Spine  12.7143 -0.263439 -6.37082
Spine1  9.76876 -5.56118 16.8217
HEad  40.0951 -20.0574 5.10929
LeftShoulder1  3.23229 -7.40073 -23.4079
LeftArm  -14.2121 13.4282 -52.4974
LeftForeArm  83.8054 -69.2952 -20.3041
LeftHand  0.325673 -1.51156 -5.3788
RightShoulder  3.39738 6.2779 28.7935
RightArm  8.63456 -16.238 27.004
RightForeArm  12.5947 14.3874 8.11391
RightHand  -2.21391 8.50877 -18.6778
LeftUpLeg  -11.3329 2.27137 7.12171
LeftLeg  36.2161 -0.791571 -0.223717
LeftFoot  -0.963896 0.729734 -8.00731
LeftToes  -8.4584e-011 5.90861e-011 8.40072e-012
